<svg xmlns="http://www.w3.org/2000/svg" version="1.1" xmlns:xlink="http://www.w3.org/1999/xlink" xmlns:svgjs="http://svgjs.dev/svgjs" width="1000" height="351" viewBox="0 0 1000 351"><g transform="matrix(1,0,0,1,-0.6060606060606233,0.6195827246085628)"><svg viewBox="0 0 396 139" data-background-color="#ffffff" preserveAspectRatio="xMidYMid meet" height="351" width="1000" xmlns="http://www.w3.org/2000/svg" xmlns:xlink="http://www.w3.org/1999/xlink"><g id="tight-bounds" transform="matrix(1,0,0,1,0.2400000000000091,-0.24536181971677706)"><svg viewBox="0 0 395.52 139.49072363943358" height="139.49072363943358" width="395.52"><g><svg viewBox="0 0 693.074700487607 244.43135999999998" height="139.49072363943358" width="395.52"><g transform="matrix(1,0,0,1,0,9.702462884310606)"><svg viewBox="0 0 395.52 225.02643423137877" height="225.02643423137877" width="395.52"><g id="textblocktransform"><svg viewBox="0 0 395.52 225.02643423137877" height="225.02643423137877" width="395.52" id="textblock"><g><svg viewBox="0 0 395.52 225.02643423137877" height="225.02643423137877" width="395.52"><g transform="matrix(1,0,0,1,0,0)"><svg width="395.52" viewBox="0.55 -35.2 63.1 35.900000000000006" height="225.02643423137877" data-palette-color="#e8772e"><path d="M19.35-35L19.35-35Q24.15-35 27.35-34 30.55-33 31.95-30.63 33.35-28.25 32.8-24.1L32.8-24.1Q32.55-22.15 31.78-20.48 31-18.8 29.4-17.7 27.8-16.6 25-16.3L25-16.3 24.95-15.95Q25.8-15.85 26.78-15.33 27.75-14.8 28.53-13.65 29.3-12.5 29.5-10.4L29.5-10.4 30.8 0 19.6 0 18.7-10.45Q18.65-11.9 18.25-12.25 17.85-12.6 16.7-12.6L16.7-12.6Q12.85-12.65 10.45-12.65 8.05-12.65 6.43-12.7 4.8-12.75 3.25-12.85L3.25-12.85 4.05-20.25 17.75-20.25Q19.25-20.25 20.08-20.55 20.9-20.85 21.33-21.73 21.75-22.6 22-24.2L22-24.2Q22.2-25.4 22-26.1 21.8-26.8 21.15-27.08 20.5-27.35 19.25-27.35L19.25-27.35Q13.9-27.35 10.33-27.28 6.75-27.2 5.5-27.05L5.5-27.05 5.4-34.5Q7.65-34.75 9.63-34.85 11.6-34.95 13.9-34.98 16.2-35 19.35-35ZM5.4-34.5L16-34.5 11.15 0 0.55 0 5.4-34.5ZM51.3-35.2L51.3-35.2Q54.2-35.2 57.47-34.8 60.75-34.4 63.65-33.4L63.65-33.4 62.7-26.5Q61.2-26.55 59.17-26.55 57.15-26.55 54.95-26.58 52.75-26.6 50.6-26.6L50.6-26.6Q49.75-26.6 49.15-26.53 48.55-26.45 48.15-26.3 47.75-26.15 47.52-25.88 47.3-25.6 47.2-25.2L47.2-25.2Q47.15-24.85 47.27-24.5 47.4-24.15 47.9-23.8 48.4-23.45 49.4-22.95L49.4-22.95 55.2-20.2Q58.05-18.85 59.5-17.35 60.95-15.85 61.37-13.93 61.8-12 61.5-9.45L61.5-9.45Q61.05-5.5 59.55-3.28 58.05-1.05 55.07-0.18 52.1 0.7 47.1 0.7L47.1 0.7Q44.95 0.7 41.27 0.33 37.6-0.05 33.65-1.05L33.65-1.05 34.65-8.6Q37.55-8.55 40.02-8.47 42.5-8.4 44.2-8.38 45.9-8.35 46.55-8.35L46.55-8.35Q48.1-8.35 48.97-8.5 49.85-8.65 50.27-8.97 50.7-9.3 50.8-9.8L50.8-9.8Q50.9-10.25 50.77-10.55 50.65-10.85 50.25-11.13 49.85-11.4 49.15-11.75L49.15-11.75 42.85-14.85Q39.95-16.3 38.5-17.93 37.05-19.55 36.65-21.45 36.25-23.35 36.5-25.45L36.5-25.45Q36.85-28.3 37.87-30.2 38.9-32.1 40.7-33.18 42.5-34.25 45.15-34.73 47.8-35.2 51.3-35.2Z" opacity="1" transform="matrix(1,0,0,1,0,0)" fill="#e8772e" class="wordmark-text-0" data-fill-palette-color="primary" id="text-0"></path></svg></g></svg></g></svg></g></svg></g><g transform="matrix(1,0,0,1,448.64334048760696,0)"><svg viewBox="0 0 244.43135999999998 244.43135999999998" height="244.43135999999998" width="244.43135999999998"><g data-palette-color="#e8772e"><rect width="66.8112384" height="244.43135999999998" fill="#e8772e" stroke="transparent" data-fill-palette-color="accent" x="0" fill-opacity="1"></rect><rect width="66.8112384" height="244.43135999999998" fill="#e8772e" stroke="transparent" data-fill-palette-color="accent" x="81.47711999999999" fill-opacity="0.75"></rect><rect width="66.8112384" height="244.43135999999998" fill="#e8772e" stroke="transparent" data-fill-palette-color="accent" x="162.95423999999997" fill-opacity="0.5"></rect></g></svg></g></svg></g><defs></defs></svg><rect width="395.52" height="139.49072363943358" fill="none" stroke="none" visibility="hidden"></rect></g></svg></g></svg>